<svg width="24" height="24" viewBox="0 0 24 24" fill="none" xmlns="http://www.w3.org/2000/svg">
<rect width="24" height="24" rx="2" fill="#155EEF"/>
<path d="M13.3333 15.3333L15.3333 13.3333L13.3333 11.3333M10.6667 8.66667L8.66667 10.6667L10.6667 12.6667M9.2 18H14.8C15.9201 18 16.4802 18 16.908 17.782C17.2843 17.5903 17.5903 17.2843 17.782 16.908C18 16.4802 18 15.9201 18 14.8V9.2C18 8.0799 18 7.51984 17.782 7.09202C17.5903 6.71569 17.2843 6.40973 16.908 6.21799C16.4802 6 15.9201 6 14.8 6H9.2C8.0799 6 7.51984 6 7.09202 6.21799C6.71569 6.40973 6.40973 6.71569 6.21799 7.09202C6 7.51984 6 8.0799 6 9.2V14.8C6 15.9201 6 16.4802 6.21799 16.908C6.40973 17.2843 6.71569 17.5903 7.09202 17.782C7.51984 18 8.0799 18 9.2 18Z" stroke="#F9FAFB" stroke-width="1.5" stroke-linecap="round" stroke-linejoin="round"/>
</svg>
