<svg width="24" height="24" viewBox="0 0 24 24" fill="none" xmlns="http://www.w3.org/2000/svg">
<rect width="24" height="24" rx="2" fill="#155EEF"/>
<g clip-path="url(#clip0_521_17838)">
<path d="M5.3335 11.9999L11.7616 15.214C11.8491 15.2577 11.8928 15.2795 11.9387 15.2882C11.9793 15.2958 12.021 15.2958 12.0616 15.2882C12.1075 15.2795 12.1512 15.2577 12.2387 15.214L18.6668 11.9999M5.3335 15.3332L11.7616 18.5473C11.8491 18.591 11.8928 18.6129 11.9387 18.6215C11.9793 18.6291 12.021 18.6291 12.0616 18.6215C12.1075 18.6129 12.1512 18.591 12.2387 18.5473L18.6668 15.3332M5.3335 8.66655L11.7616 5.45247C11.8491 5.40874 11.8928 5.38688 11.9387 5.37827C11.9793 5.37065 12.021 5.37065 12.0616 5.37827C12.1075 5.38688 12.1512 5.40874 12.2387 5.45247L18.6668 8.66655L12.2387 11.8806C12.1512 11.9244 12.1075 11.9462 12.0616 11.9548C12.021 11.9624 11.9793 11.9624 11.9387 11.9548C11.8928 11.9462 11.8491 11.9244 11.7616 11.8806L5.3335 8.66655Z" stroke="#F9FAFB" stroke-width="1.5" stroke-linecap="round" stroke-linejoin="round"/>
</g>
<defs>
<clipPath id="clip0_521_17838">
<rect width="16" height="16" fill="white" transform="translate(4 4)"/>
</clipPath>
</defs>
</svg>
