<svg width="24" height="24" viewBox="0 0 24 24" fill="none" xmlns="http://www.w3.org/2000/svg">
<rect width="24" height="24" rx="2" fill="#155EEF"/>
<path d="M12.0002 15.6666H12.0068M9.46683 18.6666H14.5335C15.2802 18.6666 15.6536 18.6666 15.9388 18.5213C16.1897 18.3934 16.3937 18.1895 16.5215 17.9386C16.6668 17.6534 16.6668 17.28 16.6668 16.5333V7.46659C16.6668 6.71985 16.6668 6.34648 16.5215 6.06126C16.3937 5.81038 16.1897 5.60641 15.9388 5.47858C15.6536 5.33325 15.2802 5.33325 14.5335 5.33325H9.46683C8.72009 5.33325 8.34672 5.33325 8.06151 5.47858C7.81063 5.60641 7.60665 5.81038 7.47882 6.06126C7.3335 6.34648 7.3335 6.71985 7.3335 7.46659V16.5333C7.3335 17.28 7.3335 17.6534 7.47882 17.9386C7.60665 18.1895 7.81063 18.3934 8.06151 18.5213C8.34672 18.6666 8.72009 18.6666 9.46683 18.6666ZM12.3335 15.6666C12.3335 15.8507 12.1843 15.9999 12.0002 15.9999C11.8161 15.9999 11.6668 15.8507 11.6668 15.6666C11.6668 15.4825 11.8161 15.3333 12.0002 15.3333C12.1843 15.3333 12.3335 15.4825 12.3335 15.6666Z" stroke="#F9FAFB" stroke-width="1.5" stroke-linecap="round" stroke-linejoin="round"/>
</svg>
