<svg width="24" height="24" viewBox="0 0 24 24" fill="none" xmlns="http://www.w3.org/2000/svg">
<rect width="24" height="24" rx="2" fill="#155EEF"/>
<path d="M6.00016 14.6667V8.80008C6.00016 8.05334 6.00016 7.67998 6.14549 7.39476C6.27332 7.14388 6.47729 6.9399 6.72818 6.81207C7.01339 6.66675 7.38676 6.66675 8.1335 6.66675H15.8668C16.6136 6.66675 16.9869 6.66675 17.2722 6.81207C17.523 6.9399 17.727 7.14388 17.8548 7.39476C18.0002 7.67998 18.0002 8.05334 18.0002 8.80008V14.6667H14.442C14.2789 14.6667 14.1974 14.6667 14.1207 14.6852C14.0527 14.7015 13.9876 14.7284 13.928 14.765C13.8607 14.8062 13.803 14.8639 13.6877 14.9792L13.6459 15.021C13.5306 15.1363 13.473 15.1939 13.4057 15.2352C13.346 15.2717 13.281 15.2987 13.213 15.315C13.1363 15.3334 13.0547 15.3334 12.8917 15.3334H11.1087C10.9456 15.3334 10.8641 15.3334 10.7873 15.315C10.7193 15.2987 10.6543 15.2717 10.5946 15.2352C10.5274 15.1939 10.4697 15.1363 10.3544 15.021L10.3126 14.9792C10.1973 14.8639 10.1396 14.8062 10.0724 14.765C10.0127 14.7284 9.94768 14.7015 9.87965 14.6852C9.80293 14.6667 9.7214 14.6667 9.55834 14.6667H6.00016ZM6.00016 14.6667C5.63197 14.6667 5.3335 14.9652 5.3335 15.3334V15.5556C5.3335 15.969 5.3335 16.1756 5.37893 16.3452C5.50222 16.8053 5.86161 17.1647 6.32174 17.288C6.49129 17.3334 6.69795 17.3334 7.11127 17.3334H16.8891C17.3024 17.3334 17.509 17.3334 17.6786 17.288C18.1387 17.1647 18.4981 16.8053 18.6214 16.3452C18.6668 16.1756 18.6668 15.969 18.6668 15.5556C18.6668 15.349 18.6668 15.2456 18.6441 15.1609C18.5825 14.9308 18.4028 14.7511 18.1727 14.6895C18.0879 14.6667 17.9846 14.6667 17.7779 14.6667H17.3335" stroke="#F9FAFB" stroke-width="1.5" stroke-linecap="round" stroke-linejoin="round"/>
</svg>
