<svg width="116" height="116" viewBox="0 0 116 116" fill="none" xmlns="http://www.w3.org/2000/svg">
<rect width="116" height="116" rx="8" fill="#F2F4F7"/>
<path d="M49.4062 83C54.15 83 58 79.15 58 74.4063V65.8125H49.4062C44.6625 65.8125 40.8125 69.6625 40.8125 74.4063C40.8125 79.15 44.6625 83 49.4062 83Z" fill="#0ACF83"/>
<path d="M40.8125 58.0001C40.8125 53.6876 44.6625 50.1875 49.4062 50.1875H58V65.8125H49.4062C44.6625 65.8127 40.8125 62.3126 40.8125 58.0001Z" fill="#A259FF"/>
<path d="M40.8125 41.5939C40.8125 36.8501 44.6625 33 49.4062 33H58V50.1875H49.4062C44.6625 50.1875 40.8125 46.3376 40.8125 41.5939Z" fill="#F24E1E"/>
<path d="M58 33H65.8125C70.125 33 73.625 36.8501 73.625 41.5939C73.625 46.3376 70.125 50.1875 65.8125 50.1875H58V33Z" fill="#FF7262"/>
<path d="M73.625 58C73.625 62.3125 70.125 65.8125 65.8125 65.8125C61.5 65.8125 58 62.3125 58 58C58 53.6875 61.5 50.1875 65.8125 50.1875C70.125 50.1875 73.625 53.6875 73.625 58Z" fill="#1ABCFE"/>
</svg>
