<svg width="116" height="116" viewBox="0 0 116 116" fill="none" xmlns="http://www.w3.org/2000/svg">
<rect width="116" height="116" rx="8" fill="#F2F4F7"/>
<path fill-rule="evenodd" clip-rule="evenodd" d="M58.0207 33C44.1849 33 33 44.1002 33 57.8327C33 68.8098 40.1665 78.1017 50.1084 81.3904C51.3514 81.6376 51.8067 80.8561 51.8067 80.1986C51.8067 79.6229 51.7658 77.6496 51.7658 75.5935C44.8056 77.0739 43.3562 72.6333 43.3562 72.6333C42.2377 69.7553 40.5804 69.0157 40.5804 69.0157C38.3023 67.4944 40.7463 67.4944 40.7463 67.4944C43.2733 67.6589 44.5992 70.0434 44.5992 70.0434C46.8358 73.8256 50.4398 72.7569 51.8897 72.099C52.0966 70.4955 52.7599 69.3855 53.4641 68.7689C47.9128 68.1932 42.0723 66.0554 42.0723 56.5168C42.0723 53.8033 43.0658 51.5833 44.6402 49.8567C44.3918 49.2401 43.5217 46.6906 44.8891 43.2783C44.8891 43.2783 47.0017 42.6204 51.7653 45.8273C53.8047 45.2837 55.9079 45.0072 58.0207 45.0049C60.1333 45.0049 62.2869 45.293 64.2756 45.8273C69.0396 42.6204 71.1523 43.2783 71.1523 43.2783C72.5197 46.6906 71.6491 49.2401 71.4007 49.8567C73.0165 51.5833 73.9691 53.8033 73.9691 56.5168C73.9691 66.0554 68.1285 68.1519 62.5358 68.7689C63.4475 69.55 64.2341 71.0298 64.2341 73.3735C64.2341 76.7036 64.1931 79.3762 64.1931 80.1981C64.1931 80.8561 64.649 81.6376 65.8914 81.3909C75.8333 78.1012 82.9999 68.8098 82.9999 57.8327C83.0409 44.1002 71.815 33 58.0207 33Z" fill="#24292F"/>
</svg>
