<svg width="116" height="116" viewBox="0 0 116 116" fill="none" xmlns="http://www.w3.org/2000/svg">
<rect width="116" height="116" rx="8" fill="#F2F4F7"/>
<path fill-rule="evenodd" clip-rule="evenodd" d="M77.0515 33H38.9485C37.3715 33.0022 35.8598 33.6296 34.7447 34.7447C33.6296 35.8598 33.0022 37.3715 33 38.9485V77.0515C33.0022 78.6285 33.6296 80.1403 34.7447 81.2553C35.8598 82.3704 37.3715 82.9978 38.9485 83H77.0515C78.6285 82.9978 80.1403 82.3704 81.2553 81.2553C82.3704 80.1403 82.9978 78.6285 83 77.0515V38.9485C82.9978 37.3715 82.3704 35.8598 81.2553 34.7447C80.1403 33.6296 78.6285 33.0022 77.0515 33ZM54.5376 69.0108C54.5376 69.5353 54.3293 70.0382 53.9584 70.409C53.5876 70.7799 53.0847 70.9882 52.5602 70.9882H44.2077C43.6833 70.9882 43.1804 70.7799 42.8095 70.409C42.4387 70.0382 42.2304 69.5353 42.2304 69.0108V44.2077C42.2304 43.6833 42.4387 43.1804 42.8095 42.8095C43.1804 42.4387 43.6833 42.2304 44.2077 42.2304H52.5602C53.0847 42.2304 53.5876 42.4387 53.9584 42.8095C54.3293 43.1804 54.5376 43.6833 54.5376 44.2077V69.0108ZM73.7696 57.6226C73.7751 57.8857 73.728 58.1472 73.631 58.3919C73.5341 58.6365 73.3893 58.8594 73.2052 59.0474C73.021 59.2354 72.8012 59.3847 72.5586 59.4866C72.3159 59.5885 72.0554 59.641 71.7923 59.641H63.4398C62.9154 59.641 62.4124 59.4326 62.0416 59.0618C61.6708 58.691 61.4624 58.188 61.4624 57.6636V44.2077C61.4624 43.6833 61.6708 43.1804 62.0416 42.8095C62.4124 42.4387 62.9154 42.2304 63.4398 42.2304H71.7923C72.3167 42.2304 72.8196 42.4387 73.1905 42.8095C73.5613 43.1804 73.7696 43.6833 73.7696 44.2077V57.6226Z" fill="url(#paint0_linear_1342_83912)"/>
<defs>
<linearGradient id="paint0_linear_1342_83912" x1="58" y1="83" x2="58" y2="33" gradientUnits="userSpaceOnUse">
<stop stop-color="#0052CC"/>
<stop offset="1" stop-color="#2684FF"/>
</linearGradient>
</defs>
</svg>
