<svg width="452" height="102" viewBox="0 0 452 102" fill="none" xmlns="http://www.w3.org/2000/svg">
<mask id="mask0_387_14498" style="mask-type:luminance" maskUnits="userSpaceOnUse" x="0" y="0" width="450" height="102">
<path d="M449.712 0H0V102H449.712V0Z" fill="white"/>
</mask>
<g mask="url(#mask0_387_14498)">
<path d="M322.484 14.8888V0.618164H324.666V80.5336H322.484V14.8888Z" fill="black"/>
<path d="M418.031 75.9171H420.457C422.358 75.9171 423.44 74.831 423.44 72.9206V64.8677H418.031C416.541 64.8677 415.794 65.6169 415.794 67.115V73.6698C415.794 75.1682 416.541 75.9171 418.031 75.9171ZM411.505 74.9807V65.804C411.505 63.0324 413.593 60.9348 416.353 60.9348H427.729V86.2176H423.44V77.9772H423.255C422.993 78.3143 422.658 78.6515 422.285 78.9136C421.65 79.4006 420.718 79.85 419.525 79.85H416.353C413.669 79.85 411.505 77.6776 411.505 74.9807Z" fill="black"/>
<path d="M403.857 79.8574V60.9423H408.146V79.8574H403.857ZM403.857 58.3204V53.4512H408.146V58.3204H403.857Z" fill="black"/>
<path d="M384.472 79.8548V54.1975H388.761V62.8124H388.949C389.172 62.4003 389.469 62.0258 389.88 61.6886C390.515 61.1269 391.559 60.5651 393.052 60.5651H395.289C398.123 60.5651 400.137 62.5875 400.137 65.4343V79.8548H395.848V66.7453C395.848 65.2469 395.101 64.498 393.611 64.498H391.932C389.807 64.498 388.761 65.5465 388.761 67.6817V79.8548H384.472Z" fill="black"/>
<path d="M368.055 74.9807V65.804C368.055 62.9575 370.071 60.9348 372.905 60.9348H381.856V63.5567L380.551 64.8677H374.584C373.091 64.8677 372.347 65.6169 372.347 67.115V73.6698C372.347 75.1682 373.091 75.9171 374.584 75.9171H381.856V79.8499H372.905C370.071 79.8499 368.055 77.8273 368.055 74.9807Z" fill="black"/>
<path d="M348.67 75.3632V65.4373C348.67 62.5908 350.684 60.5681 353.517 60.5681H360.231C363.065 60.5681 365.082 62.5908 365.082 65.4373V75.3632C365.082 78.1723 362.992 80.2324 360.231 80.2324H353.517C350.684 80.2324 348.67 78.2098 348.67 75.3632ZM355.196 76.2996H358.553C360.046 76.2996 360.79 75.5504 360.79 74.0523V66.7483C360.79 65.2502 360.046 64.501 358.553 64.501H355.196C353.705 64.501 352.959 65.2502 352.959 66.7483V74.0523C352.959 75.5504 353.705 76.2996 355.196 76.2996Z" fill="black"/>
<path d="M440.573 35.7874H442.437C444.341 35.7874 445.421 34.7011 445.421 32.7909V31.4799H440.573C439.194 31.4799 438.521 32.1167 438.521 33.3526V33.7272C438.521 35.1132 439.194 35.7874 440.573 35.7874ZM434.232 34.851V32.6035C434.232 29.7569 436.246 27.7342 439.08 27.7342H445.421V26.6107C445.421 25.1124 444.639 24.3633 443.184 24.3633H435.723V20.4304H444.862C447.698 20.4304 449.712 22.453 449.712 25.2997V39.3457H446.728L446.167 37.2855H445.982C445.72 37.7726 445.421 38.1844 445.012 38.5215C444.303 39.121 443.295 39.7203 441.693 39.7203H439.08C436.246 39.7203 434.232 37.6976 434.232 34.851Z" fill="black"/>
<path d="M421.749 35.4128H424.174C426.076 35.4128 427.158 34.3265 427.158 32.4163V24.3633H421.749C420.259 24.3633 419.512 25.1124 419.512 26.6107V33.1655C419.512 34.6636 420.259 35.4128 421.749 35.4128ZM415.223 34.4764V25.2997C415.223 22.5279 417.31 20.4304 420.071 20.4304H431.447V45.713H427.158V37.4729H426.97C426.711 37.81 426.373 38.1472 426.003 38.4093C425.368 38.8961 424.436 39.3457 423.242 39.3457H420.071C417.387 39.3457 415.223 37.1731 415.223 34.4764Z" fill="black"/>
<path d="M402.178 35.4128H404.603C406.505 35.4128 407.587 34.3265 407.587 32.4163V24.3633H402.178C400.688 24.3633 399.941 25.1124 399.941 26.6107V33.1655C399.941 34.6636 400.688 35.4128 402.178 35.4128ZM395.652 34.4764V25.2997C395.652 22.5279 397.74 20.4304 400.5 20.4304H411.876V45.713H407.587V37.4729H407.399C407.14 37.81 406.803 38.1472 406.432 38.4093C405.797 38.8961 404.865 39.3457 403.672 39.3457H400.5C397.816 39.3457 395.652 37.1731 395.652 34.4764Z" fill="black"/>
<path d="M387.824 39.3471V13.6899H392.113V39.3471H387.824Z" fill="black"/>
<path d="M374.789 35.7874H376.653C378.555 35.7874 379.637 34.7011 379.637 32.7909V31.4799H374.789C373.408 31.4799 372.738 32.1167 372.738 33.3526V33.7272C372.738 35.1132 373.408 35.7874 374.789 35.7874ZM368.449 34.851V32.6035C368.449 29.7569 370.462 27.7342 373.296 27.7342H379.637V26.6107C379.637 25.1124 378.855 24.3633 377.4 24.3633H369.939V20.4304H379.078C381.912 20.4304 383.926 22.453 383.926 25.2997V39.3457H380.942L380.384 37.2855H380.198C379.937 37.7726 379.637 38.1844 379.228 38.5215C378.52 39.121 377.512 39.7203 375.907 39.7203H373.296C370.462 39.7203 368.449 37.6976 368.449 34.851Z" fill="black"/>
<path d="M347.365 39.3502V37.1029L353.705 26.2406L348.111 15.3785V13.1311H352.4L357.248 23.4315H357.436L362.283 13.1311H366.575V15.3785L360.978 26.0535L367.319 37.1029V39.3502H363.03L357.436 28.6754H357.248L351.654 39.3502H347.365Z" fill="black"/>
<mask id="mask1_387_14498" style="mask-type:luminance" maskUnits="userSpaceOnUse" x="0" y="0" width="291" height="102">
<path d="M290.209 0H0V102H290.209V0Z" fill="white"/>
</mask>
<g mask="url(#mask1_387_14498)">
<path d="M0.337402 0.0349121H17.9277L30.7003 54.4902L44.7052 0.0349121H61.1753L74.9562 55.1652L88.1767 0.0349121H105.431L83.9193 80.1427H66.4411L52.7722 25.4625L39.3275 80.1427H21.513L0.337402 0.0349121ZM158.115 80.1427H141.981C141.459 78.6428 141.085 76.7675 140.861 74.5172C136.006 79.3928 129.769 81.8303 122.15 81.8303C115.727 81.8303 110.685 80.2929 107.025 77.2176C103.365 74.0674 101.535 69.7543 101.535 64.2789C101.535 61.8034 101.834 59.6282 102.431 57.7532C103.104 55.8779 104.149 54.3028 105.569 53.0278C107.062 51.7526 108.444 50.7025 109.714 49.8773C111.059 49.0524 112.888 48.3771 115.204 47.8521C117.519 47.327 119.387 46.9519 120.806 46.727C122.225 46.4269 124.205 46.127 126.744 45.8271C132.346 45.0769 136.081 44.2895 137.948 43.4643C139.89 42.6391 140.861 41.1015 140.861 38.8513C140.861 33.6759 137.389 31.0879 130.442 31.0879C126.781 31.0879 124.092 31.7631 122.375 33.1131C120.656 34.3883 119.536 36.6759 119.013 39.9764H104.112C105.008 26.925 113.934 20.3994 130.889 20.3994C147.696 20.3994 156.099 26.7001 156.099 39.3014V64.3911C156.099 71.742 156.771 76.9924 158.115 80.1427ZM140.749 51.9025C138.882 53.0278 135.147 54.0404 129.546 54.9403C124.84 55.6905 121.777 56.6282 120.358 57.7532C118.715 59.1032 117.893 61.0534 117.893 63.6037C117.893 66.004 118.64 67.9167 120.134 69.3417C121.703 70.6919 123.868 71.3669 126.633 71.3669C130.889 71.3669 134.288 70.2418 136.827 67.9917C139.442 65.6664 140.749 62.4786 140.749 58.4282V51.9025ZM217.857 22.0871L196.569 79.9178C195.523 82.8429 194.74 84.8684 194.216 85.9934C193.769 87.1935 193.021 88.8436 191.975 90.944C191.004 93.0442 190.071 94.5066 189.175 95.3318C188.353 96.157 187.195 97.0946 185.702 98.1447C184.283 99.1948 182.639 99.9073 180.772 100.282C178.979 100.657 176.888 100.845 174.498 100.845C172.556 100.845 169.008 100.807 163.854 100.732V87.5686H171.585C174.199 87.5686 176.179 86.8936 177.523 85.5434C178.942 84.1931 179.651 82.2806 179.651 79.8054C179.651 79.2053 179.503 78.4551 179.204 77.555L158.252 22.0871H175.394L188.615 61.5785L201.387 22.0871H217.857ZM264.227 0.0349121V80.1427H248.318V0.0349121H264.227ZM289.752 0.0349121V80.1427H273.841V0.0349121H289.752Z" fill="#D42427"/>
</g>
<path d="M299.841 9.3232C299.841 10.3103 300.016 11.2297 300.362 12.0813C300.73 12.9135 301.22 13.649 301.837 14.2877C302.454 14.907 303.168 15.4006 303.975 15.7683C304.806 16.1167 305.692 16.2909 306.637 16.2909C307.581 16.2909 308.457 16.1167 309.267 15.7683C310.095 15.4006 310.819 14.907 311.436 14.2877C312.053 13.649 312.533 12.9135 312.881 12.0813C313.246 11.2297 313.429 10.3103 313.429 9.3232C313.429 8.33612 313.246 7.42646 312.881 6.59419C312.533 5.74259 312.053 5.00712 311.436 4.38778C310.819 3.74905 310.095 3.25553 309.267 2.90712C308.457 2.53939 307.581 2.35552 306.637 2.35552C305.692 2.35552 304.806 2.53939 303.975 2.90712C303.168 3.25553 302.454 3.74905 301.837 4.38778C301.22 5.00712 300.73 5.74259 300.362 6.59419C300.016 7.42646 299.841 8.33612 299.841 9.3232ZM315.887 9.3232C315.887 10.6393 315.646 11.8587 315.164 12.9813C314.701 14.1038 314.046 15.0909 313.198 15.9425C312.37 16.7748 311.388 17.4328 310.25 17.9167C309.133 18.3812 307.926 18.6135 306.637 18.6135C305.326 18.6135 304.112 18.3812 302.993 17.9167C301.875 17.4328 300.893 16.7748 300.044 15.9425C299.217 15.0909 298.561 14.1038 298.079 12.9813C297.617 11.8587 297.386 10.6393 297.386 9.3232C297.386 8.02645 297.617 6.81678 298.079 5.69419C298.561 4.55228 299.217 3.5652 300.044 2.73293C300.893 1.88133 301.875 1.22327 302.993 0.758761C304.112 0.274894 305.326 0.032959 306.637 0.032959C307.926 0.032959 309.133 0.274894 310.25 0.758761C311.388 1.22327 312.37 1.88133 313.198 2.73293C314.046 3.5652 314.701 4.55228 315.164 5.69419C315.646 6.81678 315.887 8.02645 315.887 9.3232ZM310.539 7.72644C310.539 8.22966 310.433 8.64579 310.222 8.97482C310.009 9.30385 309.778 9.57481 309.526 9.78771C309.219 10.02 308.881 10.2038 308.516 10.3393L311.263 14.1135H308.516L306.347 10.92H305.623V14.1135H303.168V4.53292H307.071C307.571 4.53292 308.033 4.62003 308.457 4.79422C308.881 4.96841 309.247 5.20067 309.557 5.49098C309.864 5.7813 310.105 6.12002 310.278 6.50711C310.453 6.8942 310.539 7.30064 310.539 7.72644ZM306.926 8.74257C307.368 8.74257 307.695 8.64579 307.909 8.45225C308.119 8.2587 308.226 8.01676 308.226 7.72644C308.226 7.43612 308.119 7.1942 307.909 7.00063C307.695 6.80709 307.368 6.71032 306.926 6.71032H305.623V8.74257H306.926Z" fill="#D42427"/>
</g>
</svg>
