<svg width="88" height="28" viewBox="0 0 88 28" fill="none" xmlns="http://www.w3.org/2000/svg">
<path fill-rule="evenodd" clip-rule="evenodd" d="M16.6945 6.60055C16.6945 6.04826 16.2468 5.6001 15.6945 5.6001H13.3241C12.7718 5.6001 12.3241 6.04781 12.3241 6.6001V14.4246C12.3241 15.0018 12.2427 15.5002 11.9983 15.9725C11.8083 16.3922 11.4554 16.7858 11.0754 17.1268C10.6954 17.4679 10.1796 17.7302 9.66383 17.9401C9.20235 18.0975 8.71373 18.2025 8.30655 18.2025C7.62791 18.2025 6.51494 17.8876 5.64628 17.153C4.75048 16.4709 4.34329 15.5265 4.34329 14.3721V6.6001C4.34329 6.04781 3.89558 5.6001 3.34329 5.6001H1C0.447715 5.6001 0 6.04816 0 6.60044V14.3721C0 19.6979 4.83191 22.4001 8.30655 22.4001C12.1069 22.4001 16.6945 19.4618 16.6945 14.4246V6.60055ZM1 23.8001C0.447715 23.8001 0 24.2478 0 24.8001V27.0001C0 27.5524 0.447717 28.0001 1 28.0001H15.6945C16.2468 28.0001 16.6945 27.5524 16.6945 27.0001V24.8001C16.6945 24.2478 16.2468 23.8001 15.6945 23.8001H1Z" fill="#1B5BF7"/>
<path d="M32.9184 22.3998C32.3661 22.3998 31.9184 21.9521 31.9184 21.3998V20.4902C30.4695 21.6654 28.6067 22.3998 26.5959 22.3998C21.9536 22.4292 18.1391 18.6982 18.1095 14.0858C18.08 9.47344 21.8353 5.71304 26.4777 5.65428C28.5475 5.65428 30.4104 6.35936 31.8888 7.56386V1C31.8888 0.447716 32.3366 0 32.8888 0H35.4734C36.0252 0 36.4727 0.446911 36.4734 0.99868L36.5003 21.3985C36.5011 21.9513 36.0531 22.3998 35.5003 22.3998H32.9184ZM30.7061 14.0271C30.6765 12.9107 30.2625 11.8824 29.4642 11.0892C28.6658 10.3548 27.6309 9.91411 26.5072 9.91411C25.3836 9.91411 24.3487 10.3254 23.5503 11.1186C22.8111 11.9412 22.338 12.9401 22.3675 14.0564C22.3675 15.1728 22.7815 16.201 23.5799 16.9942C24.3782 17.7875 25.4132 18.1988 26.5368 18.1988C27.6604 18.1694 28.6954 17.7581 29.4937 16.9649C30.2921 16.1717 30.7061 15.114 30.7061 14.0271Z" fill="#1D1A2F"/>
<path d="M54.6968 12.0947C54.8559 12.5739 54.5929 13.0519 54.1106 13.2012L43.1387 16.5957C43.5627 17.1433 43.8509 17.3624 44.4856 17.6897C45.522 18.2008 46.6407 18.2844 47.6909 17.9567C48.7605 17.5921 49.6286 16.8886 50.1533 15.8905C50.2011 15.7995 50.2956 15.7425 50.3988 15.7423L53.3896 15.7354C54.0561 15.7339 54.5451 16.3721 54.3146 16.9943C53.4218 19.4054 52.0204 21.0295 49.0082 21.9958C44.561 23.4142 39.7912 20.9777 38.3291 16.582C36.8955 12.1775 39.3544 7.45468 43.7927 6.00812C48.2399 4.58967 53.0097 7.02621 54.4718 11.4219C54.5008 11.513 54.5973 11.795 54.6968 12.0947ZM42.667 12.0765C42.648 12.1166 42.6293 12.1572 42.6111 12.1984C42.3232 12.8484 42.9764 13.4015 43.657 13.1891L48.2075 11.7694C48.88 11.5596 49.0896 10.7631 48.4951 10.3814C48.4302 10.3398 48.3643 10.2987 48.2974 10.258C47.3073 9.79429 46.1796 9.68258 45.1011 10.0191C44.0598 10.3749 43.2007 11.1065 42.667 12.0765Z" fill="#1D1A2F"/>
<path d="M72.0004 5.6001C72.7316 5.6001 73.2156 6.35926 72.907 7.02216L66.0166 21.8222C65.8525 22.1747 65.4989 22.4001 65.11 22.4001H62.876C62.4939 22.4001 62.1452 22.1824 61.9775 21.839L54.7478 7.03902C54.4233 6.3747 54.907 5.6001 55.6463 5.6001H58.7533C59.1354 5.6001 59.4841 5.81787 59.6518 6.16123L63.9699 15.0022L67.9699 6.18689C68.1321 5.82957 68.4882 5.6001 68.8806 5.6001H72.0004Z" fill="#1D1A2F"/>
<path d="M78.0112 21.8472C77.2956 21.5853 76.6396 21.178 75.8942 20.5379C74.7015 19.4322 74.0754 17.9191 74.1648 16.2315C74.1648 16.2024 74.1648 16.2024 74.1648 16.2024C74.1648 16.0264 74.3089 15.8846 74.4849 15.8874L77.8621 15.9405H77.8984C78.0431 15.9405 78.1603 16.0578 78.1603 16.2024C78.1603 16.2024 78.1901 17.0171 78.5181 17.5118C78.9057 18.1519 79.7704 18.4429 80.9929 18.4429C82.0067 18.4429 82.782 18.3556 83.259 18.0937C83.7958 17.8318 83.8554 17.5118 83.8554 17.3081C83.8554 16.2897 81.9471 15.9114 80.814 15.795C79.5319 15.6786 78.3989 15.4168 77.5043 15.0094C76.6098 14.6602 75.8942 14.1656 75.3277 13.5836C74.5226 12.7107 74.135 11.7214 74.135 10.5575C74.135 9.0154 74.7612 7.93881 75.3277 7.32777C76.5204 6.0184 78.4287 5.32007 81.0228 5.32007C84.4517 5.32007 86.1811 6.80402 86.9862 8.0552C87.9701 9.51005 87.9701 11.0813 87.9701 11.2559C87.9701 11.4166 87.8399 11.5468 87.6792 11.5468H84.2365C84.0919 11.5468 83.9747 11.4296 83.9747 11.285C83.9747 11.2559 83.9747 11.2559 83.9747 11.2559C83.9747 11.0813 83.9448 10.5866 83.6765 10.2375C83.2292 9.62644 82.3049 9.27727 81.0824 9.27727C79.7108 9.27727 78.3094 9.62644 78.3094 10.4121C78.3094 10.7903 78.5181 11.0813 78.9654 11.3432C79.4723 11.6341 80.2475 11.8378 81.3209 11.9542C83.8256 12.2161 85.704 13.0308 86.8371 14.3111C87.5825 15.184 88 16.2024 88 17.3372C88 17.8609 88 19.1994 86.8669 20.4506C86.3004 21.0907 85.5251 21.5853 84.571 21.9054C83.587 22.2255 82.4242 22.4001 81.0526 22.4001C79.8897 22.371 78.9057 22.2255 78.0112 21.8472Z" fill="#1D1A2F"/>
</svg>
