<svg width="592" height="350" viewBox="0 0 592 350" fill="none" xmlns="http://www.w3.org/2000/svg">
<rect width="592" height="350" rx="5" fill="#F2F2F2"/>
<mask id="mask0_1282_60252" style="mask-type:luminance" maskUnits="userSpaceOnUse" x="130" y="138" width="331" height="74">
<path d="M460.32 138H130V212H460.32V138Z" fill="white"/>
</mask>
<g mask="url(#mask0_1282_60252)">
<path d="M366.869 148.801V138.448H368.471V196.426H366.869V148.801Z" fill="black"/>
<path d="M437.049 193.077H438.831C440.228 193.077 441.022 192.29 441.022 190.904V185.061H437.049C435.955 185.061 435.406 185.605 435.406 186.692V191.447C435.406 192.534 435.955 193.077 437.049 193.077ZM432.256 192.398V185.741C432.256 183.73 433.789 182.208 435.816 182.208H444.172V200.55H441.022V194.572H440.886C440.694 194.817 440.448 195.061 440.174 195.251C439.707 195.605 439.023 195.931 438.146 195.931H435.816C433.845 195.931 432.256 194.355 432.256 192.398Z" fill="black"/>
<path d="M426.639 195.936V182.213H429.789V195.936H426.639ZM426.639 180.311V176.778H429.789V180.311H426.639Z" fill="black"/>
<path d="M412.399 195.933V177.319H415.55V183.569H415.688C415.852 183.27 416.07 182.999 416.372 182.754C416.839 182.347 417.605 181.939 418.702 181.939H420.345C422.427 181.939 423.906 183.406 423.906 185.472V195.933H420.755V186.423C420.755 185.336 420.207 184.792 419.112 184.792H417.879C416.318 184.792 415.55 185.553 415.55 187.102V195.933H412.399Z" fill="black"/>
<path d="M400.341 192.398V185.741C400.341 183.675 401.822 182.208 403.903 182.208H410.478V184.11L409.519 185.061H405.136C404.039 185.061 403.493 185.605 403.493 186.692V191.447C403.493 192.534 404.039 193.077 405.136 193.077H410.478V195.931H403.903C401.822 195.931 400.341 194.463 400.341 192.398Z" fill="black"/>
<path d="M386.103 192.675V185.474C386.103 183.409 387.582 181.941 389.663 181.941H394.595C396.676 181.941 398.157 183.409 398.157 185.474V192.675C398.157 194.713 396.622 196.208 394.595 196.208H389.663C387.582 196.208 386.103 194.74 386.103 192.675ZM390.896 193.354H393.362C394.458 193.354 395.005 192.811 395.005 191.724V186.425C395.005 185.338 394.458 184.795 393.362 184.795H390.896C389.801 184.795 389.253 185.338 389.253 186.425V191.724C389.253 192.811 389.801 193.354 390.896 193.354Z" fill="black"/>
<path d="M453.607 163.964H454.976C456.374 163.964 457.167 163.175 457.167 161.79V160.839H453.607C452.594 160.839 452.099 161.301 452.099 162.197V162.469C452.099 163.474 452.594 163.964 453.607 163.964ZM448.949 163.284V161.654C448.949 159.589 450.428 158.121 452.51 158.121H457.167V157.306C457.167 156.219 456.593 155.676 455.524 155.676H450.044V152.822H456.757C458.84 152.822 460.319 154.29 460.319 156.355V166.545H458.128L457.716 165.05H457.579C457.387 165.404 457.167 165.703 456.867 165.947C456.346 166.382 455.606 166.817 454.429 166.817H452.51C450.428 166.817 448.949 165.349 448.949 163.284Z" fill="black"/>
<path d="M439.78 163.692H441.561C442.958 163.692 443.753 162.904 443.753 161.518V155.676H439.78C438.685 155.676 438.137 156.219 438.137 157.306V162.061C438.137 163.148 438.685 163.692 439.78 163.692ZM434.986 163.013V156.355C434.986 154.344 436.519 152.822 438.547 152.822H446.903V171.165H443.753V165.186H443.615C443.424 165.431 443.176 165.676 442.904 165.866C442.438 166.219 441.753 166.545 440.877 166.545H438.547C436.575 166.545 434.986 164.969 434.986 163.013Z" fill="black"/>
<path d="M425.406 163.692H427.187C428.584 163.692 429.379 162.904 429.379 161.518V155.676H425.406C424.311 155.676 423.763 156.219 423.763 157.306V162.061C423.763 163.148 424.311 163.692 425.406 163.692ZM420.612 163.013V156.355C420.612 154.344 422.145 152.822 424.173 152.822H432.529V171.165H429.379V165.186H429.241C429.05 165.431 428.802 165.676 428.53 165.866C428.064 166.219 427.379 166.545 426.503 166.545H424.173C422.201 166.545 420.612 164.969 420.612 163.013Z" fill="black"/>
<path d="M414.861 166.546V147.932H418.012V166.546H414.861Z" fill="black"/>
<path d="M405.287 163.964H406.656C408.053 163.964 408.848 163.175 408.848 161.79V160.839H405.287C404.273 160.839 403.78 161.301 403.78 162.197V162.469C403.78 163.474 404.273 163.964 405.287 163.964ZM400.63 163.284V161.654C400.63 159.589 402.109 158.121 404.19 158.121H408.848V157.306C408.848 156.219 408.273 155.676 407.205 155.676H401.725V152.822H408.437C410.519 152.822 411.998 154.29 411.998 156.355V166.545H409.807L409.396 165.05H409.26C409.068 165.404 408.848 165.703 408.548 165.947C408.027 166.382 407.287 166.817 406.108 166.817H404.19C402.109 166.817 400.63 165.349 400.63 163.284Z" fill="black"/>
<path d="M385.144 166.548V164.918L389.801 157.037L385.692 149.157V147.526H388.842L392.403 154.999H392.541L396.101 147.526H399.254V149.157L395.143 156.901L399.8 164.918V166.548H396.65L392.541 158.804H392.403L388.294 166.548H385.144Z" fill="black"/>
<mask id="mask1_1282_60252" style="mask-type:luminance" maskUnits="userSpaceOnUse" x="130" y="138" width="214" height="74">
<path d="M343.163 138H130V212H343.163V138Z" fill="white"/>
</mask>
<g mask="url(#mask1_1282_60252)">
<path d="M130.248 138.025H143.168L152.55 177.532L162.837 138.025H174.934L185.057 178.022L194.767 138.025H207.441L191.64 196.143H178.802L168.762 156.473L158.887 196.143H145.802L130.248 138.025ZM246.138 196.143H234.287C233.903 195.055 233.629 193.694 233.465 192.062C229.899 195.599 225.318 197.367 219.721 197.367C215.003 197.367 211.3 196.252 208.612 194.021C205.923 191.735 204.579 188.606 204.579 184.634C204.579 182.838 204.798 181.26 205.238 179.899C205.731 178.539 206.499 177.396 207.542 176.471C208.639 175.546 209.654 174.784 210.587 174.186C211.574 173.587 212.918 173.097 214.619 172.716C216.32 172.335 217.691 172.063 218.734 171.9C219.776 171.682 221.23 171.465 223.095 171.247C227.21 170.703 229.954 170.132 231.325 169.533C232.752 168.934 233.465 167.819 233.465 166.186C233.465 162.432 230.914 160.554 225.811 160.554C223.123 160.554 221.148 161.044 219.886 162.023C218.624 162.948 217.801 164.608 217.417 167.003H206.472C207.13 157.534 213.686 152.8 226.14 152.8C238.485 152.8 244.657 157.371 244.657 166.513V184.715C244.657 190.048 245.15 193.857 246.138 196.143ZM233.382 175.655C232.011 176.471 229.267 177.206 225.153 177.859C221.696 178.403 219.447 179.083 218.405 179.899C217.198 180.879 216.594 182.294 216.594 184.144C216.594 185.885 217.143 187.273 218.24 188.307C219.392 189.286 220.983 189.776 223.013 189.776C226.14 189.776 228.637 188.96 230.502 187.327C232.422 185.64 233.382 183.328 233.382 180.389V175.655ZM290.019 154.024L274.383 195.98C273.615 198.102 273.039 199.571 272.655 200.387C272.326 201.258 271.777 202.455 271.009 203.979C270.296 205.503 269.61 206.564 268.952 207.162C268.348 207.761 267.498 208.441 266.401 209.203C265.358 209.965 264.151 210.482 262.78 210.754C261.463 211.026 259.927 211.162 258.171 211.162C256.745 211.162 254.139 211.135 250.353 211.08V201.53H256.031C257.952 201.53 259.406 201.041 260.393 200.061C261.435 199.081 261.957 197.694 261.957 195.898C261.957 195.463 261.847 194.918 261.628 194.265L246.238 154.024H258.829L268.541 182.675L277.921 154.024H290.019ZM324.079 138.025V196.143H312.393V138.025H324.079ZM342.827 138.025V196.143H331.14V138.025H342.827Z" fill="#D42427"/>
</g>
<path d="M350.237 144.763C350.237 145.48 350.366 146.147 350.62 146.764C350.89 147.368 351.25 147.902 351.703 148.365C352.156 148.814 352.681 149.173 353.274 149.439C353.884 149.692 354.535 149.818 355.228 149.818C355.922 149.818 356.566 149.692 357.161 149.439C357.769 149.173 358.3 148.814 358.754 148.365C359.207 147.902 359.559 147.368 359.815 146.764C360.083 146.147 360.218 145.48 360.218 144.763C360.218 144.047 360.083 143.387 359.815 142.784C359.559 142.166 359.207 141.632 358.754 141.183C358.3 140.719 357.769 140.361 357.161 140.109C356.566 139.842 355.922 139.708 355.228 139.708C354.535 139.708 353.884 139.842 353.274 140.109C352.681 140.361 352.156 140.719 351.703 141.183C351.25 141.632 350.89 142.166 350.62 142.784C350.366 143.387 350.237 144.047 350.237 144.763ZM362.023 144.763C362.023 145.718 361.846 146.603 361.492 147.417C361.152 148.232 360.671 148.948 360.048 149.566C359.44 150.169 358.718 150.647 357.883 150.998C357.062 151.335 356.176 151.503 355.228 151.503C354.266 151.503 353.374 151.335 352.552 150.998C351.731 150.647 351.009 150.169 350.386 149.566C349.778 148.948 349.297 148.232 348.943 147.417C348.603 146.603 348.434 145.718 348.434 144.763C348.434 143.823 348.603 142.945 348.943 142.131C349.297 141.302 349.778 140.586 350.386 139.982C351.009 139.364 351.731 138.887 352.552 138.55C353.374 138.199 354.266 138.023 355.228 138.023C356.176 138.023 357.062 138.199 357.883 138.55C358.718 138.887 359.44 139.364 360.048 139.982C360.671 140.586 361.152 141.302 361.492 142.131C361.846 142.945 362.023 143.823 362.023 144.763ZM358.095 143.605C358.095 143.97 358.017 144.272 357.862 144.511C357.705 144.749 357.536 144.946 357.351 145.1C357.125 145.269 356.877 145.402 356.609 145.501L358.627 148.239H356.609L355.016 145.922H354.484V148.239H352.681V141.288H355.547C355.915 141.288 356.254 141.351 356.566 141.478C356.877 141.604 357.146 141.773 357.373 141.983C357.599 142.194 357.776 142.44 357.903 142.72C358.032 143.001 358.095 143.296 358.095 143.605ZM355.441 144.342C355.766 144.342 356.006 144.272 356.163 144.132C356.318 143.991 356.396 143.816 356.396 143.605C356.396 143.394 356.318 143.219 356.163 143.078C356.006 142.938 355.766 142.868 355.441 142.868H354.484V144.342H355.441Z" fill="#D42427"/>
</g>
</svg>
